<?xml version="1.0" encoding="UTF-8" standalone="no"?>
<!-- Created with Inkscape (http://www.inkscape.org/) -->

<svg
   version="1.1"
   id="svg1"
   width="128"
   height="21"
   viewBox="0 0 128 21"
   xmlns="http://www.w3.org/2000/svg"
   xmlns:svg="http://www.w3.org/2000/svg">
  <defs
     id="defs1">
    <rect
       x="52.834145"
       y="-100.53876"
       width="281.09818"
       height="45.139851"
       id="rect1" />
  </defs>
  <g
     id="g1">
    <path
       style="font-size:21.3333px;line-height:16.7307px;font-family:Bahnschrift;-inkscape-font-specification:Bahnschrift;letter-spacing:1px;white-space:pre;stroke-width:8.95821;stroke-opacity:0.451368"
       d="m 58.865225,-85.74664 q -2.229163,0 -3.458328,-1.229164 -1.218748,-1.229165 -1.218748,-3.468745 v -1.781247 q 0,-2.218747 1.218748,-3.427078 1.229165,-1.218748 3.458328,-1.218748 1.270831,0 2.291663,0.447916 1.020832,0.447916 1.624997,1.281248 v 0 l -1.531247,1.374998 v 0 q -0.447916,-0.520833 -1.062499,-0.802082 -0.614582,-0.28125 -1.291664,-0.28125 -1.229165,0 -1.906247,0.687499 -0.677082,0.687499 -0.677082,1.937497 v 1.781247 q 0,1.281248 0.677082,1.979164 0.677082,0.697915 1.906247,0.697915 0.677082,0 1.291664,-0.302083 0.614583,-0.302083 1.062499,-0.854165 v 0 l 1.531247,1.479164 v 0 q -0.604165,0.812499 -1.635414,1.260415 -1.020831,0.437499 -2.281246,0.437499 z m 7.260406,-0.156249 V -101.0487 h 2.124997 v 15.145811 z m 6.56249,0 v -6.552073 q 0,-1.145832 -0.593749,-1.770831 -0.583333,-0.624999 -1.666664,-0.624999 -1.041665,0 -1.614581,0.541666 -0.562499,0.541666 -0.562499,1.531247 l -0.21875,-2.08333 q 0.499999,-0.958331 1.302082,-1.479164 0.812498,-0.531249 1.791663,-0.531249 1.760414,0 2.718746,1.156248 0.968749,1.145832 0.968749,3.249995 v 6.56249 z m 12.458314,0 v -6.854156 q 0,-1.062499 -0.572916,-1.645831 -0.562499,-0.593749 -1.604164,-0.593749 -0.635415,0 -1.260414,0.197916 -0.614583,0.1875 -1.104165,0.552083 l -1.552081,-1.062499 q 0.614582,-0.739582 1.614581,-1.145831 1.010415,-0.416666 2.239579,-0.416666 2.031247,0 3.145829,1.052082 1.114581,1.052081 1.114581,2.968745 v 6.947906 z m -2.645829,0.156249 q -1.98958,0 -2.989579,-0.822915 -0.989581,-0.822915 -0.989581,-2.520829 0,-1.614581 0.906248,-2.406247 0.916665,-0.802082 2.739579,-0.802082 h 3.072912 l 0.145833,1.708331 H 82.17769 q -0.822915,0 -1.239581,0.374999 -0.416666,0.364583 -0.416666,1.124999 0,0.822915 0.552082,1.218748 0.552082,0.395832 1.656247,0.395832 1.208332,0 1.812498,-0.260416 0.604165,-0.260416 0.604165,-0.812499 l 0.21875,1.520831 q -0.28125,0.4375 -0.697916,0.718749 -0.416666,0.28125 -0.958332,0.416666 -0.531249,0.145833 -1.208331,0.145833 z m 13.041648,0 q -2.124997,0 -3.291662,-1.229164 -1.166664,-1.239582 -1.166664,-3.479162 v -1.760414 q 0,-2.218746 1.166664,-3.437494 1.166665,-1.218748 3.291662,-1.218748 2.124996,0 3.291661,1.218748 1.166665,1.218748 1.166665,3.437494 v 1.791664 q 0,2.229163 -1.166665,3.458328 -1.166665,1.218748 -3.291661,1.218748 z m 0,-2.02083 q 1.114581,0 1.718747,-0.697915 0.614582,-0.697916 0.614582,-1.958331 v -1.791664 q 0,-1.260414 -0.614582,-1.947913 -0.604166,-0.687499 -1.718747,-0.687499 -1.104165,0 -1.718747,0.687499 -0.614583,0.687499 -0.614583,1.947913 v 1.791664 q 0,1.260415 0.614583,1.958331 0.614582,0.697915 1.718747,0.697915 z m 12.302066,2.02083 q -1.4375,0 -2.61458,-0.416666 -1.16667,-0.427082 -2.09375,-1.270831 v 0 l 1.26042,-1.552081 v 0 q 0.88541,0.666666 1.73958,0.999998 0.86458,0.333333 1.70833,0.333333 1.26041,0 1.88541,-0.385416 0.63542,-0.395832 0.63542,-1.177081 0,-0.604166 -0.42708,-0.854166 -0.41667,-0.249999 -1.10417,-0.322916 -0.67708,-0.08333 -1.45833,-0.135416 -0.65625,-0.05208 -1.30208,-0.15625 -0.64583,-0.114583 -1.17708,-0.395833 -0.53125,-0.291666 -0.85417,-0.854165 -0.3125,-0.562499 -0.3125,-1.510414 0,-1.718748 1.05208,-2.572913 1.05209,-0.854165 3.13542,-0.854165 1.27083,0 2.36457,0.343749 1.09375,0.34375 2.05208,1.052082 v 0 l -1.28124,1.552081 v 0 q -0.8125,-0.520833 -1.60417,-0.781249 -0.78125,-0.260416 -1.53124,-0.260416 -1.08334,0 -1.625,0.374999 -0.54167,0.364583 -0.54167,1.104165 0,0.489583 0.375,0.708332 0.375,0.208333 0.98958,0.270833 0.61459,0.0625 1.32292,0.114583 0.67708,0.04167 1.36458,0.15625 0.69791,0.104167 1.28125,0.416666 0.58333,0.3125 0.9375,0.927082 0.35416,0.614582 0.35416,1.677081 0,1.73958 -1.13541,2.604162 -1.125,0.864582 -3.39583,0.864582 z m 15.53123,-17.09372 -7.03124,19.812466 h -2.03125 l 7.03124,-19.812466 z m 5.93749,17.09372 q -2.22916,0 -3.45833,-1.229164 -1.21875,-1.229165 -1.21875,-3.468745 v -1.781247 q 0,-2.218747 1.21875,-3.427078 1.22917,-1.218748 3.45833,-1.218748 1.27083,0 2.29166,0.447916 1.02083,0.447916 1.625,1.281248 v 0 l -1.53125,1.374998 v 0 q -0.44791,-0.520833 -1.0625,-0.802082 -0.61458,-0.28125 -1.29166,-0.28125 -1.22916,0 -1.90625,0.687499 -0.67708,0.687499 -0.67708,1.937497 v 1.781247 q 0,1.281248 0.67708,1.979164 0.67709,0.697915 1.90625,0.697915 0.67708,0 1.29166,-0.302083 0.61459,-0.302083 1.0625,-0.854165 v 0 l 1.53125,1.479164 v 0 q -0.60417,0.812499 -1.63541,1.260415 -1.02084,0.437499 -2.28125,0.437499 z m 11.40623,0 q -2.12499,0 -3.29166,-1.229164 -1.16666,-1.239582 -1.16666,-3.479162 v -1.760414 q 0,-2.218746 1.16666,-3.437494 1.16667,-1.218748 3.29166,-1.218748 2.125,0 3.29167,1.218748 1.16666,1.218748 1.16666,3.437494 v 1.791664 q 0,2.229163 -1.16666,3.458328 -1.16667,1.218748 -3.29167,1.218748 z m 0,-2.02083 q 1.11459,0 1.71875,-0.697915 0.61458,-0.697916 0.61458,-1.958331 v -1.791664 q 0,-1.260414 -0.61458,-1.947913 -0.60416,-0.687499 -1.71875,-0.687499 -1.10416,0 -1.71874,0.687499 -0.61458,0.687499 -0.61458,1.947913 v 1.791664 q 0,1.260415 0.61458,1.958331 0.61458,0.697915 1.71874,0.697915 z m 12.30207,2.02083 q -1.4375,0 -2.61458,-0.416666 -1.16667,-0.427082 -2.09375,-1.270831 v 0 l 1.26041,-1.552081 v 0 q 0.88542,0.666666 1.73959,0.999998 0.86458,0.333333 1.70833,0.333333 1.26041,0 1.88541,-0.385416 0.63542,-0.395832 0.63542,-1.177081 0,-0.604166 -0.42709,-0.854166 -0.41666,-0.249999 -1.10416,-0.322916 -0.67708,-0.08333 -1.45833,-0.135416 -0.65625,-0.05208 -1.30208,-0.15625 -0.64584,-0.114583 -1.17709,-0.395833 -0.53125,-0.291666 -0.85416,-0.854165 -0.3125,-0.562499 -0.3125,-1.510414 0,-1.718748 1.05208,-2.572913 1.05208,-0.854165 3.13541,-0.854165 1.27083,0 2.36458,0.343749 1.09375,0.34375 2.05208,1.052082 v 0 l -1.28125,1.552081 v 0 q -0.81249,-0.520833 -1.60416,-0.781249 -0.78125,-0.260416 -1.53125,-0.260416 -1.08333,0 -1.625,0.374999 -0.54166,0.364583 -0.54166,1.104165 0,0.489583 0.375,0.708332 0.375,0.208333 0.98958,0.270833 0.61458,0.0625 1.32291,0.114583 0.67709,0.04167 1.36459,0.15625 0.69791,0.104167 1.28124,0.416666 0.58334,0.3125 0.9375,0.927082 0.35417,0.614582 0.35417,1.677081 0,1.73958 -1.13542,2.604162 -1.12499,0.864582 -3.39582,0.864582 z m 21.15622,-0.156249 v -6.552073 q 0,-1.145832 -0.59375,-1.770831 -0.58334,-0.624999 -1.66667,-0.624999 -0.98958,0 -1.53124,0.604166 -0.54167,0.604165 -0.54167,1.70833 l -0.42708,-2.08333 q 0.52083,-1.083331 1.35416,-1.666664 0.83333,-0.583332 1.84375,-0.583332 1.76041,0 2.71874,1.156248 0.96875,1.145832 0.96875,3.249995 v 6.56249 z m -12.91665,0 v -10.812483 h 2.125 v 10.812483 z m 6.45832,0 v -6.552073 q 0,-1.145832 -0.5625,-1.770831 -0.5625,-0.624999 -1.59374,-0.624999 -1.04167,0 -1.61458,0.552082 -0.5625,0.552083 -0.5625,1.552081 l -0.21875,-2.08333 q 0.5,-0.979165 1.30208,-1.510414 0.8125,-0.531249 1.79166,-0.531249 1.70833,0 2.64583,1.156248 0.9375,1.145832 0.9375,3.249995 v 6.56249 z m 16.95831,0.156249 q -2.12499,0 -3.29166,-1.229164 -1.16666,-1.239582 -1.16666,-3.479162 v -1.760414 q 0,-2.218746 1.16666,-3.437494 1.16667,-1.218748 3.29166,-1.218748 2.125,0 3.29166,1.218748 1.16667,1.218748 1.16667,3.437494 v 1.791664 q 0,2.229163 -1.16667,3.458328 -1.16666,1.218748 -3.29166,1.218748 z m 0,-2.02083 q 1.11458,0 1.71875,-0.697915 0.61458,-0.697916 0.61458,-1.958331 v -1.791664 q 0,-1.260414 -0.61458,-1.947913 -0.60417,-0.687499 -1.71875,-0.687499 -1.10416,0 -1.71875,0.687499 -0.61458,0.687499 -0.61458,1.947913 v 1.791664 q 0,1.260415 0.61458,1.958331 0.61459,0.697915 1.71875,0.697915 z m 12.30207,2.02083 q -1.4375,0 -2.61458,-0.416666 -1.16666,-0.427082 -2.09375,-1.270831 v 0 l 1.26042,-1.552081 v 0 q 0.88541,0.666666 1.73958,0.999998 0.86458,0.333333 1.70833,0.333333 1.26042,0 1.88541,-0.385416 0.63542,-0.395832 0.63542,-1.177081 0,-0.604166 -0.42708,-0.854166 -0.41667,-0.249999 -1.10417,-0.322916 -0.67708,-0.08333 -1.45833,-0.135416 -0.65625,-0.05208 -1.30208,-0.15625 -0.64583,-0.114583 -1.17708,-0.395833 -0.53125,-0.291666 -0.85417,-0.854165 -0.3125,-0.562499 -0.3125,-1.510414 0,-1.718748 1.05209,-2.572913 1.05208,-0.854165 3.13541,-0.854165 1.27083,0 2.36458,0.343749 1.09375,0.34375 2.05208,1.052082 v 0 l -1.28125,1.552081 v 0 q -0.8125,-0.520833 -1.60417,-0.781249 -0.78124,-0.260416 -1.53124,-0.260416 -1.08333,0 -1.625,0.374999 -0.54167,0.364583 -0.54167,1.104165 0,0.489583 0.375,0.708332 0.375,0.208333 0.98959,0.270833 0.61458,0.0625 1.32291,0.114583 0.67708,0.04167 1.36458,0.15625 0.69792,0.104167 1.28125,0.416666 0.58333,0.3125 0.9375,0.927082 0.35416,0.614582 0.35416,1.677081 0,1.73958 -1.13541,2.604162 -1.125,0.864582 -3.39583,0.864582 z"
       id="text1"
       transform="matrix(0.84380997,0,0,0.84380997,-43.344589,88.596536)"
       aria-label="chaos/cosmos" />
  </g>
</svg>
