<?xml version="1.0" encoding="UTF-8" standalone="no"?>
<!DOCTYPE svg PUBLIC "-//W3C//DTD SVG 1.1//EN" "http://www.w3.org/Graphics/SVG/1.1/DTD/svg11.dtd">
<svg width="100%" height="100%" viewBox="0 0 512 512" version="1.1" xmlns="http://www.w3.org/2000/svg" xmlns:xlink="http://www.w3.org/1999/xlink" xml:space="preserve" xmlns:serif="http://www.serif.com/" style="fill-rule:evenodd;clip-rule:evenodd;stroke-linejoin:round;stroke-miterlimit:2;">
    <path d="M512,128L512,384C512,454.645 454.645,512 384,512L128,512C57.355,512 0,454.645 0,384L0,128C0,57.355 57.355,0 128,0L384,0C454.645,0 512,57.355 512,128Z" style="fill:rgb(235,235,235);"/>
    <g id="text1" transform="matrix(16.974232,0,0,16.974232,-883.576831,1805.902354)">
        <path d="M58.865,-85.747C57.379,-85.747 56.226,-86.156 55.407,-86.976C54.594,-87.795 54.188,-88.951 54.188,-90.445L54.188,-92.226C54.188,-93.705 54.594,-94.847 55.407,-95.653C56.226,-96.465 57.379,-96.872 58.865,-96.872C59.712,-96.872 60.476,-96.722 61.157,-96.424C61.837,-96.125 62.379,-95.698 62.782,-95.142L61.251,-93.767C60.952,-94.115 60.598,-94.382 60.188,-94.57C59.778,-94.757 59.348,-94.851 58.896,-94.851C58.077,-94.851 57.442,-94.622 56.99,-94.163C56.539,-93.705 56.313,-93.059 56.313,-92.226L56.313,-90.445C56.313,-89.59 56.539,-88.931 56.99,-88.465C57.442,-88 58.077,-87.767 58.896,-87.767C59.348,-87.767 59.778,-87.868 60.188,-88.07C60.598,-88.271 60.952,-88.556 61.251,-88.924L62.782,-87.445C62.379,-86.903 61.834,-86.483 61.146,-86.184C60.466,-85.892 59.706,-85.747 58.865,-85.747Z" style="fill-rule:nonzero;"/>
    </g>
    <g id="text11" serif:id="text1" transform="matrix(16.974232,0,0,16.974232,-588.057891,1805.902354)">
        <path d="M58.865,-85.747C57.379,-85.747 56.226,-86.156 55.407,-86.976C54.594,-87.795 54.188,-88.951 54.188,-90.445L54.188,-92.226C54.188,-93.705 54.594,-94.847 55.407,-95.653C56.226,-96.465 57.379,-96.872 58.865,-96.872C59.712,-96.872 60.476,-96.722 61.157,-96.424C61.837,-96.125 62.379,-95.698 62.782,-95.142L61.251,-93.767C60.952,-94.115 60.598,-94.382 60.188,-94.57C59.778,-94.757 59.348,-94.851 58.896,-94.851C58.077,-94.851 57.442,-94.622 56.99,-94.163C56.539,-93.705 56.313,-93.059 56.313,-92.226L56.313,-90.445C56.313,-89.59 56.539,-88.931 56.99,-88.465C57.442,-88 58.077,-87.767 58.896,-87.767C59.348,-87.767 59.778,-87.868 60.188,-88.07C60.598,-88.271 60.952,-88.556 61.251,-88.924L62.782,-87.445C62.379,-86.903 61.834,-86.483 61.146,-86.184C60.466,-85.892 59.706,-85.747 58.865,-85.747Z" style="fill-rule:nonzero;"/>
    </g>
    <g id="text12" serif:id="text1" transform="matrix(22.476818,0,0,22.476818,-2415.850962,2344.863426)">
        <path d="M123.376,-102.84L116.344,-83.028L114.313,-83.028L121.344,-102.84L123.376,-102.84Z" style="fill-rule:nonzero;"/>
    </g>
</svg>
